<mxfile host="app.diagrams.net" modified="2024-06-07T12:58:27.897Z" agent="Mozilla/5.0 (Windows NT 10.0; Win64; x64) AppleWebKit/537.36 (KHTML, like Gecko) Chrome/114.0.0.0 Safari/537.36" version="24.5.2" etag="WX12ys0xR5Vpqfo6AcP3" type="github">
  <diagram name="Seite-1" id="DqCJdVnOlo549khjt_s0">
    <mxGraphModel>
      <root>
        <mxCell id="0" />
        <mxCell id="1" parent="0" />
      </root>
    </mxGraphModel>
  </diagram>
</mxfile>
